<svg xmlns="http://www.w3.org/2000/svg" viewBox="0 0 430.45 430.66"><defs><style>.cls-1{fill:#2b2a2a;}.cls-2{fill:#ffa600;}</style></defs><title>sun_1</title><g id="Layer_2" data-name="Layer 2"><g id="Layer_1-2" data-name="Layer 1"><circle class="cls-1" cx="215.11" cy="215.09" r="70.5"/><path class="cls-2" d="M215.11,154.59a60.5,60.5,0,1,1-60.5,60.5,60.5,60.5,0,0,1,60.5-60.5m0-20a80.5,80.5,0,1,0,80.5,80.5,80.59,80.59,0,0,0-80.5-80.5Z"/><rect class="cls-2" x="215.61" y="317.66" width="18" height="113"/><rect class="cls-1" x="196.72" y="317.66" width="18.45" height="113"/><rect class="cls-2" x="325.62" y="263.85" width="18" height="113" transform="translate(-128.52 330.44) rotate(-45)"/><rect class="cls-1" x="312.2" y="277.05" width="18.45" height="113" transform="translate(-141.71 324.98) rotate(-45)"/><rect class="cls-2" x="317.45" y="196.59" width="113" height="18"/><rect class="cls-1" x="317.45" y="215.02" width="113" height="18.45"/><rect class="cls-2" x="196.06" width="18" height="113"/><rect class="cls-1" x="214.49" width="18.45" height="113"/><rect class="cls-2" x="264.32" y="86.82" width="113" height="18" transform="translate(26.21 254.92) rotate(-45)"/><rect class="cls-1" x="277.52" y="99.79" width="113" height="18.45" transform="translate(20.74 268.12) rotate(-45)"/><rect class="cls-2" x="86.82" y="52.68" width="18" height="113" transform="translate(-49.13 99.73) rotate(-45)"/><rect class="cls-1" x="99.79" y="39.48" width="18.45" height="113" transform="translate(-35.94 105.2) rotate(-45)"/><rect class="cls-2" y="215.94" width="113" height="18"/><rect class="cls-1" y="197.06" width="113" height="18.45"/><rect class="cls-2" x="52.68" y="325.18" width="113" height="18" transform="translate(-204.32 175.08) rotate(-45)"/><rect class="cls-1" x="39.48" y="311.76" width="113" height="18.45" transform="translate(-198.86 161.88) rotate(-45)"/></g></g></svg>